# xmcd
#
# Track frame offsets:
#	150
#	59353
#	75578
#	101088
#	126597
#	171902
#	198169
#
# Disc length: 2853 seconds
#
# Revision: 0
# Processed by: cddbd v1.5.2PL0 Copyright (c) Steve Scherf et al.
# Submitted via: audiograbber 1.83.01
#
DISCID=5d0b2307
DTITLE=Grateful Dead - 73-06-22 PNE Coliseum, Vancouver Canada
DYEAR=1900
DGENRE=
TTITLE0=Here Comes Sunshine
TTITLE1=Promised Land
TTITLE2=Brown Eyed Women
TTITLE3=El Paso
TTITLE4=Black Peter
TTITLE5=Greatest Story Ever Told
TTITLE6=Big Railroad Blues
EXTD=
EXTT0=
EXTT1=
EXTT2=
EXTT3=
EXTT4=
EXTT5=
EXTT6=
PLAYORDER=
